<svg xmlns="http://www.w3.org/2000/svg" viewBox="0 0 128 128">
  <rect width="128" height="128" fill="#14B8A6" rx="16"/>
  <g transform="translate(12.8, 12.8) scale(1.6)" stroke="#ffffff" stroke-width="4" stroke-linecap="round" stroke-linejoin="round" fill="none">
    <path d="M38.4 38.4 25.6 25.6"/>
    <path d="M49.771 57.313a5.333 5.333 0 1 1-7.542-7.542l-4.712 4.712a5.333 5.333 0 1 1-7.542-7.542l16.97-16.97a5.333 5.333 0 1 1 7.542 7.542l-4.712 4.712a5.333 5.333 0 1 1 7.542 7.542z"/>
    <path d="m57.333 57.333-3.733-3.733"/>
    <path d="M10.4 10.4 6.667 6.667"/>
    <path d="M17.077 34.048a5.333 5.333 0 1 1-7.542-7.542l4.712-4.712a5.333 5.333 0 1 1-7.542-7.542l7.542-7.542a5.333 5.333 0 1 1 7.542 7.542l4.712-4.712a5.333 5.333 0 1 1 7.542 7.542z"/>
  </g>
</svg>
